<mxfile host="app.diagrams.net" modified="2022-01-03T13:56:27.547Z" agent="5.0 (Macintosh; Intel Mac OS X 10_15_7) AppleWebKit/537.36 (KHTML, like Gecko) Chrome/96.0.4664.110 Safari/537.36" etag="HR1yn75YhuKthigg6zO4" version="13.8.8" type="github">
  <diagram id="cDMQizvBc2EQm3rXe3IN" name="Page-1">
    <mxGraphModel dx="946" dy="646" grid="1" gridSize="10" guides="1" tooltips="1" connect="1" arrows="1" fold="1" page="1" pageScale="1" pageWidth="827" pageHeight="1169" math="0" shadow="0">
      <root>
        <mxCell id="0" />
        <mxCell id="1" parent="0" />
        <mxCell id="5WE3SFg9eTPvWDXAt9s6-3" value="" style="edgeStyle=orthogonalEdgeStyle;rounded=0;orthogonalLoop=1;jettySize=auto;html=1;" parent="1" source="5WE3SFg9eTPvWDXAt9s6-1" edge="1">
          <mxGeometry relative="1" as="geometry">
            <mxPoint x="240" y="230" as="targetPoint" />
          </mxGeometry>
        </mxCell>
        <mxCell id="5WE3SFg9eTPvWDXAt9s6-1" value="ft-1" style="whiteSpace=wrap;html=1;" parent="1" vertex="1">
          <mxGeometry x="120" y="200" width="70" height="60" as="geometry" />
        </mxCell>
        <mxCell id="5WE3SFg9eTPvWDXAt9s6-2" value="dev1" style="whiteSpace=wrap;html=1;" parent="1" vertex="1">
          <mxGeometry x="240" y="200" width="69" height="60" as="geometry" />
        </mxCell>
        <mxCell id="5WE3SFg9eTPvWDXAt9s6-4" value="release1" style="whiteSpace=wrap;html=1;" parent="1" vertex="1">
          <mxGeometry x="360" y="200" width="70" height="60" as="geometry" />
        </mxCell>
        <mxCell id="5WE3SFg9eTPvWDXAt9s6-6" value="ft-2" style="rounded=0;whiteSpace=wrap;html=1;" parent="1" vertex="1">
          <mxGeometry x="120" y="300" width="70" height="60" as="geometry" />
        </mxCell>
        <mxCell id="5WE3SFg9eTPvWDXAt9s6-9" value="dev2" style="rounded=0;whiteSpace=wrap;html=1;" parent="1" vertex="1">
          <mxGeometry x="240" y="300" width="69" height="60" as="geometry" />
        </mxCell>
        <mxCell id="5WE3SFg9eTPvWDXAt9s6-11" value="release2" style="whiteSpace=wrap;html=1;" parent="1" vertex="1">
          <mxGeometry x="360" y="300" width="70" height="60" as="geometry" />
        </mxCell>
        <mxCell id="5WE3SFg9eTPvWDXAt9s6-19" value="master" style="rounded=0;whiteSpace=wrap;html=1;" parent="1" vertex="1">
          <mxGeometry x="480" y="200" width="70" height="60" as="geometry" />
        </mxCell>
        <mxCell id="5WE3SFg9eTPvWDXAt9s6-23" value="" style="endArrow=classic;html=1;exitX=0.5;exitY=1;exitDx=0;exitDy=0;entryX=1;entryY=0.5;entryDx=0;entryDy=0;" parent="1" source="5WE3SFg9eTPvWDXAt9s6-19" target="5WE3SFg9eTPvWDXAt9s6-11" edge="1">
          <mxGeometry width="50" height="50" relative="1" as="geometry">
            <mxPoint x="780" y="280" as="sourcePoint" />
            <mxPoint x="640" y="320" as="targetPoint" />
          </mxGeometry>
        </mxCell>
        <mxCell id="5WE3SFg9eTPvWDXAt9s6-24" value="pull" style="text;html=1;strokeColor=none;fillColor=none;align=center;verticalAlign=middle;whiteSpace=wrap;rounded=0;" parent="1" vertex="1">
          <mxGeometry x="440" y="260" width="40" height="50" as="geometry" />
        </mxCell>
        <mxCell id="5WE3SFg9eTPvWDXAt9s6-25" value="" style="endArrow=classic;html=1;entryX=0.608;entryY=1.017;entryDx=0;entryDy=0;entryPerimeter=0;exitX=1.008;exitY=0.633;exitDx=0;exitDy=0;exitPerimeter=0;" parent="1" source="5WE3SFg9eTPvWDXAt9s6-11" target="5WE3SFg9eTPvWDXAt9s6-19" edge="1">
          <mxGeometry width="50" height="50" relative="1" as="geometry">
            <mxPoint x="640" y="330" as="sourcePoint" />
            <mxPoint x="770" y="290" as="targetPoint" />
          </mxGeometry>
        </mxCell>
        <mxCell id="5WE3SFg9eTPvWDXAt9s6-26" value="merge" style="text;html=1;strokeColor=none;fillColor=none;align=center;verticalAlign=middle;whiteSpace=wrap;rounded=0;" parent="1" vertex="1">
          <mxGeometry x="480" y="300" width="40" height="20" as="geometry" />
        </mxCell>
        <mxCell id="5WE3SFg9eTPvWDXAt9s6-28" value="" style="edgeStyle=orthogonalEdgeStyle;rounded=0;orthogonalLoop=1;jettySize=auto;html=1;" parent="1" edge="1">
          <mxGeometry relative="1" as="geometry">
            <mxPoint x="190" y="329.5" as="sourcePoint" />
            <mxPoint x="240" y="329.5" as="targetPoint" />
          </mxGeometry>
        </mxCell>
        <mxCell id="5WE3SFg9eTPvWDXAt9s6-29" value="" style="edgeStyle=orthogonalEdgeStyle;rounded=0;orthogonalLoop=1;jettySize=auto;html=1;" parent="1" edge="1">
          <mxGeometry relative="1" as="geometry">
            <mxPoint x="309" y="229.5" as="sourcePoint" />
            <mxPoint x="359" y="229.5" as="targetPoint" />
          </mxGeometry>
        </mxCell>
        <mxCell id="5WE3SFg9eTPvWDXAt9s6-30" value="" style="edgeStyle=orthogonalEdgeStyle;rounded=0;orthogonalLoop=1;jettySize=auto;html=1;" parent="1" edge="1">
          <mxGeometry relative="1" as="geometry">
            <mxPoint x="309" y="329.5" as="sourcePoint" />
            <mxPoint x="359" y="329.5" as="targetPoint" />
          </mxGeometry>
        </mxCell>
        <mxCell id="5WE3SFg9eTPvWDXAt9s6-31" value="" style="edgeStyle=orthogonalEdgeStyle;rounded=0;orthogonalLoop=1;jettySize=auto;html=1;" parent="1" edge="1">
          <mxGeometry relative="1" as="geometry">
            <mxPoint x="430" y="229.5" as="sourcePoint" />
            <mxPoint x="480" y="229.5" as="targetPoint" />
          </mxGeometry>
        </mxCell>
        <mxCell id="5WE3SFg9eTPvWDXAt9s6-33" value="merge" style="text;html=1;strokeColor=none;fillColor=none;align=center;verticalAlign=middle;whiteSpace=wrap;rounded=0;" parent="1" vertex="1">
          <mxGeometry x="434" y="210" width="40" height="20" as="geometry" />
        </mxCell>
        <mxCell id="5WE3SFg9eTPvWDXAt9s6-34" value="" style="endArrow=classic;html=1;" parent="1" edge="1">
          <mxGeometry width="50" height="50" relative="1" as="geometry">
            <mxPoint x="550" y="230" as="sourcePoint" />
            <mxPoint x="600" y="230" as="targetPoint" />
          </mxGeometry>
        </mxCell>
        <mxCell id="5WE3SFg9eTPvWDXAt9s6-35" value="" style="endArrow=classic;html=1;" parent="1" edge="1">
          <mxGeometry width="50" height="50" relative="1" as="geometry">
            <mxPoint x="600" y="240" as="sourcePoint" />
            <mxPoint x="550" y="240" as="targetPoint" />
          </mxGeometry>
        </mxCell>
        <mxCell id="5WE3SFg9eTPvWDXAt9s6-36" value="hotfix" style="rounded=0;whiteSpace=wrap;html=1;" parent="1" vertex="1">
          <mxGeometry x="600" y="200" width="70" height="60" as="geometry" />
        </mxCell>
        <mxCell id="5WE3SFg9eTPvWDXAt9s6-43" value="" style="endArrow=none;dashed=1;html=1;" parent="1" edge="1">
          <mxGeometry width="50" height="50" relative="1" as="geometry">
            <mxPoint x="220" y="385" as="sourcePoint" />
            <mxPoint x="220" y="385" as="targetPoint" />
            <Array as="points">
              <mxPoint x="90" y="385" />
              <mxPoint x="90" y="155" />
              <mxPoint x="220" y="155" />
            </Array>
          </mxGeometry>
        </mxCell>
        <mxCell id="5WE3SFg9eTPvWDXAt9s6-46" value="本地分支" style="edgeLabel;html=1;align=center;verticalAlign=middle;resizable=0;points=[];" parent="5WE3SFg9eTPvWDXAt9s6-43" vertex="1" connectable="0">
          <mxGeometry x="0.1833" y="-1" relative="1" as="geometry">
            <mxPoint y="-15" as="offset" />
          </mxGeometry>
        </mxCell>
        <mxCell id="5WE3SFg9eTPvWDXAt9s6-47" value="" style="endArrow=none;html=1;exitX=0.5;exitY=0;exitDx=0;exitDy=0;" parent="1" source="5WE3SFg9eTPvWDXAt9s6-1" target="5WE3SFg9eTPvWDXAt9s6-4" edge="1">
          <mxGeometry width="50" height="50" relative="1" as="geometry">
            <mxPoint x="270" y="360" as="sourcePoint" />
            <mxPoint x="320" y="310" as="targetPoint" />
            <Array as="points">
              <mxPoint x="155" y="170" />
              <mxPoint x="395" y="170" />
            </Array>
          </mxGeometry>
        </mxCell>
        <mxCell id="5WE3SFg9eTPvWDXAt9s6-48" value="测试测出来的bug，开发本地&lt;br&gt;修完，merge到dev和release" style="edgeLabel;html=1;align=center;verticalAlign=middle;resizable=0;points=[];" parent="5WE3SFg9eTPvWDXAt9s6-47" vertex="1" connectable="0">
          <mxGeometry x="-0.04" y="-1" relative="1" as="geometry">
            <mxPoint x="39" y="-21" as="offset" />
          </mxGeometry>
        </mxCell>
        <mxCell id="5WE3SFg9eTPvWDXAt9s6-49" value="测试" style="text;html=1;strokeColor=none;fillColor=none;align=center;verticalAlign=middle;whiteSpace=wrap;rounded=0;" parent="1" vertex="1">
          <mxGeometry x="375" y="261" width="40" height="20" as="geometry" />
        </mxCell>
        <mxCell id="5WE3SFg9eTPvWDXAt9s6-50" value="多人开发代码合并" style="text;html=1;strokeColor=none;fillColor=none;align=center;verticalAlign=middle;whiteSpace=wrap;rounded=0;" parent="1" vertex="1">
          <mxGeometry x="241" y="266" width="65.5" height="20" as="geometry" />
        </mxCell>
        <mxCell id="5WE3SFg9eTPvWDXAt9s6-51" value="打tad、发布" style="text;html=1;strokeColor=none;fillColor=none;align=center;verticalAlign=middle;whiteSpace=wrap;rounded=0;" parent="1" vertex="1">
          <mxGeometry x="477.5" y="173" width="75" height="20" as="geometry" />
        </mxCell>
      </root>
    </mxGraphModel>
  </diagram>
</mxfile>
